<?xml version="1.0" standalone="no"?>
<!DOCTYPE svg PUBLIC "-//W3C//DTD SVG 20010904//EN"
 "http://www.w3.org/TR/2001/REC-SVG-20010904/DTD/svg10.dtd">
<svg version="1.0" xmlns="http://www.w3.org/2000/svg"
 width="238.000000pt" height="105.000000pt" viewBox="0 0 238.000000 105.000000"
 preserveAspectRatio="xMidYMid meet">

<g transform="translate(0.000000,105.000000) scale(0.100000,-0.100000)"
fill="#000000" stroke="none">
<path d="M959 973 c-15 -9 -35 -30 -44 -46 -21 -35 -24 -112 -7 -129 21 -21
12 -42 -42 -102 -49 -54 -54 -58 -76 -46 -14 8 -40 10 -69 6 l-47 -6 -59 77
c-52 68 -58 81 -56 119 1 35 -3 45 -25 63 -34 26 -54 26 -88 0 -50 -39 -22
-119 42 -119 23 0 38 -14 90 -85 60 -79 62 -85 49 -107 -26 -40 -29 -82 -11
-126 l16 -42 -40 -47 c-64 -76 -77 -86 -101 -74 -28 16 -68 14 -108 -6 -101
-48 -95 -195 10 -247 53 -25 101 -15 149 34 34 33 38 43 38 87 0 27 -7 58 -15
70 -14 20 -12 25 42 88 53 62 58 65 87 59 35 -9 60 -10 96 -3 21 3 35 -10 107
-104 70 -92 81 -113 77 -137 -16 -80 94 -120 128 -46 22 49 -26 108 -78 98 -7
-1 -48 47 -93 107 l-82 110 17 49 c16 44 16 54 4 93 -8 24 -14 47 -15 51 0 4
23 34 52 66 l52 59 39 -10 c47 -13 81 -5 121 29 65 54 63 144 -5 204 -28 24
-43 30 -82 30 -26 0 -59 -8 -73 -17z m123 -34 c32 -17 51 -74 38 -115 -33
-100 -180 -71 -180 36 0 70 78 113 142 79z m-567 -84 c0 -25 -40 -33 -49 -10
-9 24 2 37 27 33 14 -2 22 -10 22 -23z m295 -271 c36 -35 35 -98 -3 -130 -59
-50 -157 -11 -157 63 0 46 15 72 53 89 40 17 75 10 107 -22z m-314 -326 c50
-24 57 -96 15 -139 -75 -75 -198 11 -150 104 26 49 77 63 135 35z m569 -123
c0 -22 -31 -33 -47 -17 -17 17 -1 44 24 40 15 -2 23 -10 23 -23z"/>
<path d="M692 567 c-28 -29 -28 -57 -1 -91 40 -50 119 -21 119 44 0 63 -75 93
-118 47z m62 -23 c21 -8 20 -40 -1 -48 -9 -4 -23 0 -31 8 -13 12 -13 18 -2 30
14 18 13 18 34 10z"/>
<path d="M110 520 c0 -122 1 -130 19 -130 17 0 20 8 23 48 l3 47 48 5 c62 8
91 36 90 87 -2 56 -29 73 -114 73 l-69 0 0 -130z m121 90 c26 -15 26 -66 -1
-80 -12 -6 -33 -10 -48 -8 -25 3 -27 7 -30 51 -3 47 -3 47 28 47 17 0 40 -5
51 -10z"/>
<path d="M352 523 c3 -124 4 -128 26 -131 20 -3 22 0 22 47 0 46 2 51 23 51
16 0 29 -13 49 -50 19 -34 34 -50 48 -50 26 0 25 4 -6 57 l-25 44 25 30 c33
38 33 73 1 104 -21 22 -33 25 -95 25 l-71 0 3 -127z m128 77 c34 -34 9 -70
-47 -70 -32 0 -33 1 -33 45 0 43 1 45 30 45 17 0 39 -9 50 -20z"/>
<path d="M930 636 c0 -10 13 -16 38 -18 31 -3 37 -7 39 -28 1 -14 5 -64 8
-112 5 -65 10 -88 21 -88 10 0 14 25 16 113 l3 112 43 3 c28 2 42 8 42 18 0
11 -20 14 -105 14 -85 0 -105 -3 -105 -14z"/>
<path d="M1239 627 c-69 -46 -76 -144 -14 -203 43 -40 90 -50 144 -28 74 30
104 121 61 191 -38 64 -128 83 -191 40z m117 -22 c39 -16 68 -70 58 -109 -10
-41 -50 -71 -96 -71 -33 0 -45 6 -69 33 -35 39 -37 79 -8 116 19 25 49 44 72
45 4 1 23 -6 43 -14z"/>
<path d="M1500 630 c0 -5 15 -10 34 -10 19 0 37 -4 40 -8 3 -5 6 -56 7 -115 1
-97 3 -107 20 -107 17 0 19 11 21 113 l3 112 38 3 c20 2 37 7 37 13 0 5 -44 9
-100 9 -60 0 -100 -4 -100 -10z"/>
<path d="M1794 588 c3 -29 6 -86 6 -125 0 -58 3 -73 15 -73 13 0 15 21 15 125
0 121 -1 125 -21 125 -20 0 -21 -4 -15 -52z"/>
<path d="M1920 515 c0 -102 3 -125 14 -125 11 0 16 14 18 48 l3 47 54 5 c61 7
81 25 81 76 0 49 -37 74 -111 74 l-59 0 0 -125z m118 89 c28 -20 30 -69 3 -84
-11 -5 -36 -10 -55 -10 l-36 0 0 48 c0 27 3 52 7 55 12 12 58 7 81 -9z"/>
<path d="M2170 515 l0 -125 50 0 c28 0 50 5 50 10 0 6 -16 10 -35 10 l-35 0 0
50 0 50 38 0 c27 0 33 3 22 10 -8 5 -25 10 -38 10 -21 0 -23 4 -20 43 3 40 5
42 38 47 l35 6 -34 7 c-74 16 -71 21 -71 -118z"/>
</g>
</svg>
